' Generated by UML Generator
' Encoded: hLbPRziu47xthz2Zl8cDxAlH1dME5bwaJRPnsaKNYuAM68SRILHr94sxpM_VeNY8fsGNVGXiayEPRquE9w_g1bLDcsUJ-fuK9QfG7YKPgkjbqrHaqpPubT3Ycdp3qT7aZgGuIaYLP7WowQYYapQvlqBPAIrkoRQjK4DeSLNH4bSDmNNqVH95iwP2HNsBg_LTXUixcgMBAAF5DdePNS37_EtohyyVbXStvvCV5jTbMMOawNXsd0w-0zg693-Y794YHjMsNaJNWBFO_ltFT14zK98wJ0ned4rE2_oq5gXwjF5cK9d5YB80uAsVCSD4YWPNjoZ1qMgP9BGjcZzAz1wNj2ODhPu0c0A-J1hoG9ed83Wl6lZ2pKZ0RinWdKb9Zi4MUScM4fITeGQlOOtjqSS2LqB6IjYQhTUqhHBisO08sEB6iu5ojY9-Q_0wmhUe1FKwQCyvAjVqZ3AlSCGnuaIBg5UMxnn6YAlNMVI2rCqBHz_ZgJgdk4kYZwH8wMEyAnFzaEAbQ2IRfvvKEwN87F-fVSE1mFuM19qyNJ8Fn3u_J8DesMdmmXbdU88oL2Ju1lOoQKl9up1gsRBbUU1yMRA0HDaB5YMIuKVItAKLUaJPh-1f1y4LhchG1mFVPOhAHWJ4JB3lpRFmXpsdvRQmY3qsrZZpw5kOmSZsPop1CufIiQDhgfnXnDS12_ui4mjrtFkeMs26F6ZB56ooL47dnBUiFa2RLBYZDSJhX0f6RyvtzB8Ko-21UrwcClWseeMKMU4CenhlGcsxSA3AR81bHWei8aTis0p4BbJ5fg9P9aDWmvUlQ0NAlwQL8EljthdgkQyyWa07Vy5JHkoyntL9Ynex2AvnaNQbryPGmuO2eAWq23k2hENHs2cY5rtsE2MKByi2AlHG28AQo6or5NaKwmge9DnV5ydAjhE3Lee8WZtj0js6oiDVeJZLiq61C7E4591Kga0f0FneKBmebRRyb2yh089iVqC9HgDs4WA2E5anWVfYuynWMK7eQ2pvMR-cYf8knEqeLEbu7YuTSqy9UHuj8VDmARbY1Y0Fk0lk3oWZK2qfr_E0rDr2_82o5eiMwJ22fhB1Nq5vC4iD3I8eeywTyZsGig4KG1Mz844ZExcPQWWVvE55rCj_6MrQagLd-1QrMS__DTmuS9l4qpdah5gDf-hwiBdYk6ut_-84uAurtNi7W0VVgFIN7jZZ2deUku9iQJVYFj84xd55FUztHHcIpMJXeW6zBDvVMipkR_7pJ_PBziKEApCpEIkPT0dDSrIaAhjE-Myp9WnkMWe93tZo9snH-tRWFFh2hm1fbyqO9AFsSOQcvHLJMKebnx3zhSBFkQgQhXZs5ua7fFdCwEzzkR9AVUy8fmnu7nLUAkTwz5CDF6gw9viC99cd4cyy2lKm6WVgkSLzD06GXv4ESUgQUPLoGuiww6sbT5TeXd7wC6K6P3nmF0yUgw2nGA4ji8tzFDNhBC3HR9mDji3JL-SEeryX2Tm2_FNtY1BGzUVWYAJDm1Mo3arx8nsexD0z5FRsIiyM5dhewQEFWq5r80kNAICKTQj0HehDWKZf65lJa4_dxo-5IBZpkiyvlOsFBgRwA_w4R5TGIRRQEudKykQ-h3xXYiQcJgH-XxU8RJiRyfopyQQhPDNw3XMNrVcN5cLhEc0suy00dT8Lz19s4UzfvMP5Wb88HUM2JSzFaUQaQ6jRcjejiu5D9GLQ0kXRacP4LC4igCMZKnTukCjdSs2gSUpKlB4voF5qX5eDF4H-NRD1u5fMj-x2j8emepelqc4Q9nD76abbg2uNLVCozHZW01ohIhvtSkDzu8h--wR6fr29HFCDtPbglllMhHyWZFKEtbVRhY9ugwOsZMPEGVZ9Err_Ik-bykvDdEyLzajLtwi9rCgYEtdbU7BqbUHjldRdq4xD_FtpqT4H-xkOEghAyxlgYlfNsS9ue-rYYC2CEZnZbiRRhsLb3_OxdDmhcmoUykONxrqDe-pavPzfXRbW1VRyQu9nYhlFif_lX_VZnl9zruR09QNtRTv_7CpdnoFp__2vaClCIJgZj6ToOHBlZj7yXGa6jXp9dWdlVFxViHNjuyHc38JfVvlD0gFYqJE-YV7m8NDwFAJ4iHQ7Ez5Dx95kPmYZ2hWK7YdkT9K1TwTM0wDGSS2PVuuVySlm32a5lJsL73tW5-0C5WMrEKiCZW45jJNu6oFtGt67Tu9SdzYjmbuCJCPKLPYOeoFpS71lueo0TjtaNAqXZe7675hOCIb61ZnvrBJ0MlUISm6IhqtOh_heV7NDK9dVuxFPiJfkDDTKusBl-JNKDWr0LZCfgviU3NvA4JPkpRIRHybo99VsvYi8lNNOwXSb17zAMCH100vJovHMvoY53gRjg50_dQbqg5Tqeizk-2J4K2MrwOCeVOJ6rJ3CqEj37-r8us5sRb8xRvKrIOTms4prx1fetFhmU0NMRVFiVm
' URL: http://www.plantuml.com/plantuml/uml/hLbPRziu47xthz2Zl8cDxAlH1dME5bwaJRPnsaKNYuAM68SRILHr94sxpM_VeNY8fsGNVGXiayEPRquE9w_g1bLDcsUJ-fuK9QfG7YKPgkjbqrHaqpPubT3Ycdp3qT7aZgGuIaYLP7WowQYYapQvlqBPAIrkoRQjK4DeSLNH4bSDmNNqVH95iwP2HNsBg_LTXUixcgMBAAF5DdePNS37_EtohyyVbXStvvCV5jTbMMOawNXsd0w-0zg693-Y794YHjMsNaJNWBFO_ltFT14zK98wJ0ned4rE2_oq5gXwjF5cK9d5YB80uAsVCSD4YWPNjoZ1qMgP9BGjcZzAz1wNj2ODhPu0c0A-J1hoG9ed83Wl6lZ2pKZ0RinWdKb9Zi4MUScM4fITeGQlOOtjqSS2LqB6IjYQhTUqhHBisO08sEB6iu5ojY9-Q_0wmhUe1FKwQCyvAjVqZ3AlSCGnuaIBg5UMxnn6YAlNMVI2rCqBHz_ZgJgdk4kYZwH8wMEyAnFzaEAbQ2IRfvvKEwN87F-fVSE1mFuM19qyNJ8Fn3u_J8DesMdmmXbdU88oL2Ju1lOoQKl9up1gsRBbUU1yMRA0HDaB5YMIuKVItAKLUaJPh-1f1y4LhchG1mFVPOhAHWJ4JB3lpRFmXpsdvRQmY3qsrZZpw5kOmSZsPop1CufIiQDhgfnXnDS12_ui4mjrtFkeMs26F6ZB56ooL47dnBUiFa2RLBYZDSJhX0f6RyvtzB8Ko-21UrwcClWseeMKMU4CenhlGcsxSA3AR81bHWei8aTis0p4BbJ5fg9P9aDWmvUlQ0NAlwQL8EljthdgkQyyWa07Vy5JHkoyntL9Ynex2AvnaNQbryPGmuO2eAWq23k2hENHs2cY5rtsE2MKByi2AlHG28AQo6or5NaKwmge9DnV5ydAjhE3Lee8WZtj0js6oiDVeJZLiq61C7E4591Kga0f0FneKBmebRRyb2yh089iVqC9HgDs4WA2E5anWVfYuynWMK7eQ2pvMR-cYf8knEqeLEbu7YuTSqy9UHuj8VDmARbY1Y0Fk0lk3oWZK2qfr_E0rDr2_82o5eiMwJ22fhB1Nq5vC4iD3I8eeywTyZsGig4KG1Mz844ZExcPQWWVvE55rCj_6MrQagLd-1QrMS__DTmuS9l4qpdah5gDf-hwiBdYk6ut_-84uAurtNi7W0VVgFIN7jZZ2deUku9iQJVYFj84xd55FUztHHcIpMJXeW6zBDvVMipkR_7pJ_PBziKEApCpEIkPT0dDSrIaAhjE-Myp9WnkMWe93tZo9snH-tRWFFh2hm1fbyqO9AFsSOQcvHLJMKebnx3zhSBFkQgQhXZs5ua7fFdCwEzzkR9AVUy8fmnu7nLUAkTwz5CDF6gw9viC99cd4cyy2lKm6WVgkSLzD06GXv4ESUgQUPLoGuiww6sbT5TeXd7wC6K6P3nmF0yUgw2nGA4ji8tzFDNhBC3HR9mDji3JL-SEeryX2Tm2_FNtY1BGzUVWYAJDm1Mo3arx8nsexD0z5FRsIiyM5dhewQEFWq5r80kNAICKTQj0HehDWKZf65lJa4_dxo-5IBZpkiyvlOsFBgRwA_w4R5TGIRRQEudKykQ-h3xXYiQcJgH-XxU8RJiRyfopyQQhPDNw3XMNrVcN5cLhEc0suy00dT8Lz19s4UzfvMP5Wb88HUM2JSzFaUQaQ6jRcjejiu5D9GLQ0kXRacP4LC4igCMZKnTukCjdSs2gSUpKlB4voF5qX5eDF4H-NRD1u5fMj-x2j8emepelqc4Q9nD76abbg2uNLVCozHZW01ohIhvtSkDzu8h--wR6fr29HFCDtPbglllMhHyWZFKEtbVRhY9ugwOsZMPEGVZ9Err_Ik-bykvDdEyLzajLtwi9rCgYEtdbU7BqbUHjldRdq4xD_FtpqT4H-xkOEghAyxlgYlfNsS9ue-rYYC2CEZnZbiRRhsLb3_OxdDmhcmoUykONxrqDe-pavPzfXRbW1VRyQu9nYhlFif_lX_VZnl9zruR09QNtRTv_7CpdnoFp__2vaClCIJgZj6ToOHBlZj7yXGa6jXp9dWdlVFxViHNjuyHc38JfVvlD0gFYqJE-YV7m8NDwFAJ4iHQ7Ez5Dx95kPmYZ2hWK7YdkT9K1TwTM0wDGSS2PVuuVySlm32a5lJsL73tW5-0C5WMrEKiCZW45jJNu6oFtGt67Tu9SdzYjmbuCJCPKLPYOeoFpS71lueo0TjtaNAqXZe7675hOCIb61ZnvrBJ0MlUISm6IhqtOh_heV7NDK9dVuxFPiJfkDDTKusBl-JNKDWr0LZCfgviU3NvA4JPkpRIRHybo99VsvYi8lNNOwXSb17zAMCH100vJovHMvoY53gRjg50_dQbqg5Tqeizk-2J4K2MrwOCeVOJ6rJ3CqEj37-r8us5sRb8xRvKrIOTms4prx1fetFhmU0NMRVFiVm
' Generated on: 2026-02-28T06:36:55.908449385

@startuml
skinparam classAttributeIconSize 0
hide circle

class BuckPalConfigurationProperties {
  -transferThreshold: long = Long.MAX_VALUE
}

class BuckPalApplication {
  +{static} main(args: String[]): void
}

class BuckPalConfiguration {
  +moneyTransferProperties(buckPalConfigurationProperties: BuckPalConfigurationProperties): MoneyTransferProperties
}

interface IAccountJpaRepository {
}

class ActivityJpaEntity {
  -id: Long
  -timestamp: LocalDateTime
  -ownerAccountId: long
  -sourceAccountId: long
  -targetAccountId: long
  -amount: long
}

class AccountMapper {
  ~mapToDomainEntity(account: AccountJpaEntity, activities: List<ActivityJpaEntity>): Account
  ~mapToActivityWindow(activities: List<ActivityJpaEntity>): ActivityWindow
  ~mapToJpaEntity(activity: Activity): ActivityJpaEntity
}

interface IActivityJpaRepository {
  ~findByOwner(ownerAccountId: long): List<ActivityJpaEntity>
  ~getDepositBalanceUntil(accountId: long, until: LocalDateTime): Optional<Long>
  ~getWithdrawalBalanceUntil(accountId: long, until: LocalDateTime): Optional<Long>
}

class AccountPersistenceAdapter {
  -accountRepository: IAccountJpaRepository
  -activityRepository: IActivityJpaRepository
  -accountMapper: AccountMapper
  --
  +loadAccount(accountId: AccountId): Account
  +getAllAccounts(): List<Account>
  +updateActivities(account: Account): void
  +createAccount(account: Account): AccountId
}

class NoOpAccountLock {
  +lockAccount(accountId: AccountId): void
  +releaseAccount(accountId: AccountId): void
}

class AccountJpaEntity {
  -id: Long
  -baselineBalance: Long
}

class AccountBalanceController {
  -balancePort: ForBalanceAccount
  --
  ~getAccountBalance(accountId: Long): BalanceResponse
}

class AccountSendMoneyController {
  -sendPort: ForSendMoneyAccount
  -balancePort: ForBalanceAccount
  --
  ~sendMoney(sourceAccountId: Long, targetAccountId: Long, amount: Long): SendMoneyResponse
}

class AccountWithdrawController {
  -withdrawPort: ForWithdrawAccount
  -balancePort: ForBalanceAccount
  --
  ~withdraw(accountId: Long, amount: Long): WithdrawResponse
}

class AccountCreateController {
  -createPort: ForCreateAccount
  --
  ~createAccount(initialBalance: Long): CreateResponse
}

class AccountDepositController {
  -depositPort: ForDepositAccount
  -balancePort: ForBalanceAccount
  --
  ~deposit(accountId: Long, amount: Long): DepositResponse
}

class AccountListAllController {
  -listPort: ForListAccount
  --
  ~listAccounts(): ListResponse
}

interface IAccountLock {
  ~lockAccount(accountId: Account.AccountId): void
  ~releaseAccount(accountId: Account.AccountId): void
}

class PositiveMoneyValidator {
  +isValid(value: Money, context: ConstraintValidatorContext): boolean
}

class Validation {
  -{static} validator: Validator = buildDefaultValidatorFactory().getValidator()
  --
  +{static} validate(subject: T): void
}

interface ForGetAccount {
  ~loadAccount(accountId: AccountId): Account
  ~getAllAccounts(): List<Account>
}

interface ForUpdateAccount {
  ~updateActivities(account: Account): void
  ~createAccount(account: Account): AccountId
}

interface ForBalanceAccount {
  ~getBalance(query: BalanceQuery): Money
}

interface ForDepositAccount {
  ~deposit(command: DepositCommand): boolean
}

interface ForListAccount {
  ~listAccounts(): List<Account>
}

interface ForSendMoneyAccount {
  ~sendMoney(command: SendMoneyCommand): boolean
}

interface ForCreateAccount {
  ~createAccount(command: CreateCommand): AccountId
}

interface ForWithdrawAccount {
  ~withdraw(command: WithdrawCommand): boolean
}

class Activity {
  -id: ActivityId
  -ownerAccountId: Account.AccountId
  -sourceAccountId: Account.AccountId
  -targetAccountId: Account.AccountId
  -timestamp: LocalDateTime
  -money: Money
  --
  +Activity(ownerAccountId: Account.AccountId, sourceAccountId: Account.AccountId, targetAccountId: Account.AccountId, timestamp: LocalDateTime, money: Money)
}

class ActivityId {
  -value: Long
}

class Account {
  -id: AccountId
  -baselineBalance: Money
  -activityWindow: ActivityWindow
  --
  +{static} withoutId(baselineBalance: Money, activityWindow: ActivityWindow): Account
  +{static} withId(accountId: AccountId, baselineBalance: Money, activityWindow: ActivityWindow): Account
  +getId(): Optional<AccountId>
  +calculateBalance(): Money
  +withdraw(money: Money, targetAccountId: AccountId): boolean
  -mayWithdraw(money: Money): boolean
  +deposit(money: Money, sourceAccountId: AccountId): boolean
}

class AccountId {
  -value: Long
}

class Money {
  +{static} ZERO: Money = Money.of(0L)
  -amount: BigInteger
  --
  +isPositiveOrZero(): boolean
  +isNegative(): boolean
  +isPositive(): boolean
  +isGreaterThanOrEqualTo(money: Money): boolean
  +isGreaterThan(money: Money): boolean
  +{static} of(value: long): Money
  +{static} add(a: Money, b: Money): Money
  +minus(money: Money): Money
  +plus(money: Money): Money
  +{static} subtract(a: Money, b: Money): Money
  +negate(): Money
}

class ActivityWindow {
  -activities: List<Activity>
  --
  +ActivityWindow(activities: List<Activity>)
  +ActivityWindow(activities: Activity)
  +getStartTimestamp(): LocalDateTime
  +getEndTimestamp(): LocalDateTime
  +calculateBalance(accountId: Account.AccountId): Money
  +getActivities(): List<Activity>
  +addActivity(activity: Activity): void
}

class AccountListAllUseCase {
  -loadPort: ForGetAccount
  --
  +listAccounts(): List<Account>
}

class AccountWithdrawUseCase {
  -loadPort: ForGetAccount
  -updatePort: ForUpdateAccount
  --
  +withdraw(command: WithdrawCommand): boolean
}

class AccountBalanceUseCase {
  -loadPort: ForGetAccount
  --
  +getBalance(query: BalanceQuery): Money
}

class AccountDepositUseCase {
  -loadPort: ForGetAccount
  -updatePort: ForUpdateAccount
  --
  +deposit(command: DepositCommand): boolean
}

class MoneyTransferProperties {
  -maximumTransferThreshold: Money = Money.of(1_000_000L)
}

class AccountTransferUseCase {
  -loadPort: ForGetAccount
  -accountLock: IAccountLock
  -updatePort: ForUpdateAccount
  -moneyTransferProperties: MoneyTransferProperties
  --
  +sendMoney(command: SendMoneyCommand): boolean
  -checkThreshold(command: SendMoneyCommand): void
}

class AccountCreateUseCase {
  -updatePort: ForUpdateAccount
  --
  +createAccount(command: CreateCommand): AccountId
}

class ThresholdExceededException {
  +ThresholdExceededException(threshold: Money, actual: Money)
}

BuckPalConfiguration ..> BuckPalConfigurationProperties
BuckPalConfiguration ..> MoneyTransferProperties
AccountMapper ..> AccountJpaEntity
AccountMapper ..> Account
AccountMapper ..> ActivityWindow
AccountMapper ..> Activity
AccountMapper ..> ActivityJpaEntity
AccountPersistenceAdapter ..|> ForGetAccount
AccountPersistenceAdapter ..|> ForUpdateAccount
AccountPersistenceAdapter *-- IAccountJpaRepository
AccountPersistenceAdapter *-- IActivityJpaRepository
AccountPersistenceAdapter *-- AccountMapper
AccountPersistenceAdapter ..> AccountId
AccountPersistenceAdapter ..> Account
NoOpAccountLock ..|> IAccountLock
NoOpAccountLock ..> AccountId
AccountBalanceController *-- ForBalanceAccount
AccountSendMoneyController *-- ForSendMoneyAccount
AccountSendMoneyController *-- ForBalanceAccount
AccountWithdrawController *-- ForWithdrawAccount
AccountWithdrawController *-- ForBalanceAccount
AccountCreateController *-- ForCreateAccount
AccountDepositController *-- ForDepositAccount
AccountDepositController *-- ForBalanceAccount
AccountListAllController *-- ForListAccount
IAccountLock ..> AccountId
PositiveMoneyValidator ..> Money
ForGetAccount ..> AccountId
ForGetAccount ..> Account
ForUpdateAccount ..> Account
ForUpdateAccount ..> AccountId
ForBalanceAccount ..> Money
ForCreateAccount ..> AccountId
Activity *-- ActivityId
Activity *-- AccountId
Activity *-- Money
Account *-- AccountId
Account *-- Money
Account *-- ActivityWindow
Account ..> Account
Money --> Money
ActivityWindow o-- Activity
ActivityWindow ..> AccountId
ActivityWindow ..> Money
AccountListAllUseCase ..|> ForListAccount
AccountListAllUseCase *-- ForGetAccount
AccountWithdrawUseCase ..|> ForWithdrawAccount
AccountWithdrawUseCase *-- ForGetAccount
AccountWithdrawUseCase *-- ForUpdateAccount
AccountBalanceUseCase ..|> ForBalanceAccount
AccountBalanceUseCase *-- ForGetAccount
AccountBalanceUseCase ..> Money
AccountDepositUseCase ..|> ForDepositAccount
AccountDepositUseCase *-- ForGetAccount
AccountDepositUseCase *-- ForUpdateAccount
MoneyTransferProperties *-- Money
AccountTransferUseCase ..|> ForSendMoneyAccount
AccountTransferUseCase *-- ForGetAccount
AccountTransferUseCase *-- IAccountLock
AccountTransferUseCase *-- ForUpdateAccount
AccountTransferUseCase *-- MoneyTransferProperties
AccountCreateUseCase ..|> ForCreateAccount
AccountCreateUseCase *-- ForUpdateAccount
AccountCreateUseCase ..> AccountId
ThresholdExceededException ..> Money
@enduml